<?xml version="1.0" standalone="no"?><svg xmlns="http://www.w3.org/2000/svg" viewBox="0 0 1440 320"><path fill="#f2d16b" fill-opacity="1" d="M0,128L26.7,154.7C53.3,181,107,235,160,250.7C213.3,267,267,245,320,202.7C373.3,160,427,96,480,85.3C533.3,75,587,117,640,160C693.3,203,747,245,800,272C853.3,299,907,309,960,309.3C1013.3,309,1067,299,1120,250.7C1173.3,203,1227,117,1280,96C1333.3,75,1387,117,1413,138.7L1440,160L1440,320L1413.3,320C1386.7,320,1333,320,1280,320C1226.7,320,1173,320,1120,320C1066.7,320,1013,320,960,320C906.7,320,853,320,800,320C746.7,320,693,320,640,320C586.7,320,533,320,480,320C426.7,320,373,320,320,320C266.7,320,213,320,160,320C106.7,320,53,320,27,320L0,320Z"></path></svg>