<?xml version="1.0" standalone="no"?><svg xmlns="http://www.w3.org/2000/svg" viewBox="0 0 1440 320"><path fill="#a2d9ff" fill-opacity="1" d="M0,224L26.7,234.7C53.3,245,107,267,160,240C213.3,213,267,139,320,144C373.3,149,427,235,480,256C533.3,277,587,235,640,197.3C693.3,160,747,128,800,96C853.3,64,907,32,960,26.7C1013.3,21,1067,43,1120,96C1173.3,149,1227,235,1280,234.7C1333.3,235,1387,149,1413,106.7L1440,64L1440,320L1413.3,320C1386.7,320,1333,320,1280,320C1226.7,320,1173,320,1120,320C1066.7,320,1013,320,960,320C906.7,320,853,320,800,320C746.7,320,693,320,640,320C586.7,320,533,320,480,320C426.7,320,373,320,320,320C266.7,320,213,320,160,320C106.7,320,53,320,27,320L0,320Z"></path></svg>